<svg width="14" height="10" viewBox="0 0 14 10" fill="none" xmlns="http://www.w3.org/2000/svg">
<path d="M5.3961 9.27956C5.26483 9.27983 5.13481 9.25417 5.01348 9.20406C4.89215 9.15395 4.78192 9.08038 4.6891 8.98756L0.447098 4.74456C0.351525 4.65238 0.275267 4.54209 0.222773 4.42013C0.17028 4.29816 0.142602 4.16696 0.141356 4.03418C0.140109 3.9014 0.165318 3.76971 0.215512 3.64678C0.265706 3.52385 0.33988 3.41214 0.433705 3.31819C0.52753 3.22423 0.639128 3.1499 0.761988 3.09953C0.884847 3.04916 1.01651 3.02377 1.14929 3.02482C1.28207 3.02588 1.4133 3.05337 1.53534 3.1057C1.65738 3.15802 1.76778 3.23412 1.8601 3.32956L5.3951 6.86456L11.7601 0.501562C11.9476 0.313921 12.202 0.208453 12.4672 0.208359C12.7325 0.208265 12.987 0.313553 13.1746 0.501061C13.3622 0.68857 13.4677 0.942938 13.4678 1.20821C13.4679 1.47348 13.3626 1.72792 13.1751 1.91556L6.1031 8.98756C6.01028 9.08038 5.90004 9.15395 5.77872 9.20406C5.65739 9.25417 5.52736 9.27983 5.3961 9.27956Z" fill="#2FAB73"/>
</svg>
